<svg height="512pt" viewBox="-1 0 512 512.0001" width="512pt" xmlns="http://www.w3.org/2000/svg"><path d="m509.035156 395.027344c-.402344-4.152344-4.09375-7.207032-8.253906-6.800782-4.152344.402344-7.195312 4.089844-6.792969 8.242188 7.578125 78.707031-81.984375 129.414062-145.414062 82.335938-22.460938-16.675782-37.042969-43.390626-37.042969-73.460938 0-50.234375 40.832031-91.445312 91.4375-91.445312 36.726562 0 69.769531 21.847656 84.167969 55.644531 1.632812 3.839843 6.078125 5.621093 9.917969 3.988281 3.835937-1.640625 5.621093-6.074219 3.988281-9.914062-36.070313-84.664063-155.710938-86.871094-194.722657-3.125-11.203124-8.242188-23.476562-14.699219-36.476562-19.246094l-26.390625-27.527344c18.25-14.1875 36.449219-35.613281 42.554687-58.910156 20.847657-4.152344 36.609376-22.589844 36.609376-44.640625 0-21.230469-14.601563-39.105469-34.300782-44.113281v-20.679688h7.152344c7.246094 0 13.140625-5.882812 13.140625-13.128906v-79.472656c0-13.6875-7.347656-25.6875-18.300781-32.265626v-7.417968c0-7.347656-6.832032-13.089844-15.566406-13.089844h-160.109376c-17.464843 0-33.980468 4.746094-46.503906 13.371094-13.390625 9.222656-20.769531 21.757812-20.769531 35.300781v81.910156c0 11.046875 10.589844 19.8125 24.46875 20.617188v16.0625c-17.644531 6.257812-30.3125 23.128906-30.3125 42.898437 0 20.527344 13.644531 37.90625 32.347656 43.570313 1.25 5.078125 3.0625 10.15625 5.441407 15.207031 1.78125 3.777344 6.277343 5.402344 10.054687 3.628906 3.78125-1.785156 5.402344-6.289062 3.617187-10.070312-9.328124-19.769532-4.855468-25.652344-6.035156-82.738282 0-25.050781 0-1.136718 0-28.488281 3.4375-.511719 71.617188 5.542969 139.964844-41.816406.886719 19.960937 17.394531 35.921875 37.578125 35.921875h8.714844c0 100.335938 1.097656 97.414062-3.0625 109.777344-6.519531 19.257812-22.523438 36.578125-39.671875 49.527344-.011719 0-.011719 0-.011719 0-6.730469 5.128906-15.253906 10.621093-23.46875 14.8125-17.875 9.179687-26.8125 8.828124-26.914063 8.847656-14.894531 0-49.40625-18.21875-71.363281-42.734375-2.789062-3.117188-7.566406-3.378907-10.671875-.585938-3.113281 2.78125-3.375 7.558594-.582031 10.671875 6.476563 7.222656 13.84375 13.894532 21.523437 19.808594l-24.828124 25.898438c-54.789063 19.378906-94.148438 71.695312-94.148438 133.042968 0 20.273438 16.496094 36.769532 36.769531 36.769532h290.59375c10.398438 0 19.808594-4.34375 26.5-11.316407 73.871094 38.53125 163.214844-19.910156 155.171875-104.867187zm-437.207031-158.558594c-9.082031-5.25-15.195313-15.074219-15.195313-26.308594s6.113282-21.0625 15.195313-26.3125zm235.671875-26.300781c0 12.808593-7.960938 23.792969-19.195312 28.257812.011718-.636719.011718 2.488281.011718-56.511719 11.234375 4.464844 19.183594 15.449219 19.183594 28.253907zm-214.824219-74.011719c-19.820312 0-19.335937.050781-20.847656-.109375-5.855469-.617187-9.351563-3.699219-9.351563-5.464844v-81.910156c0-18.191406 23.890626-33.558594 52.15625-33.558594 167.6875.011719 160.007813-.019531 160.5625.023438v8.070312c0 35.53125-77.136718 113.726563-182.519531 112.949219zm171.808594-5.894531c-12.414063 0-22.503906-10.085938-22.503906-22.5v-9.734375c18.453125-15.289063 38.796875-37.4375 45.878906-60.128906 3.507813 3.96875 5.632813 9.179687 5.632813 14.875v77.488281zm-31.53125 194.339843c.183594.191407 25.269531 26.46875 25.375 26.46875-.214844.65625-22.089844 69.601563-22.390625 70.558594-1.453125 1.914063-4.890625 2.660156-7.4375 1.027344-5.292969-3.425781-37.0625-24.011719-38.59375-25 1.53125-2.597656 42.9375-72.882812 43.046875-73.054688zm-32.789063 97.703126v16.324218c0 1.710938-1.453124 3.304688-3.304687 3.304688h-29.585937c-1.863282 0-3.304688-1.59375-3.304688-3.304688v-16.324218l18.097656-11.71875zm9.046876-87.183594c-6.175782 10.460937-6.597657 11.164062-27.144532 46.058594-21.261718-36.101563-20.535156-34.84375-25.738281-43.671876 19.753906 8.042969 29.890625 8.496094 52.882813-2.386718zm-78.03125-10.519532c3.144531 5.339844 13.429687 22.792969 14.074218 23.890626 0 .011718 0 .011718.011719.019531.011719.019531.019531.03125.019531.03125 0 .011719 0 .011719.011719.019531 0 .011719.007813.011719.007813.019531 34.429687 58.425781 1.679687 2.855469 28.921874 49.074219-42.554687 27.558594-40.136718 26.503906-43.257812 25.707031-1.171875-.292969-2.148438-.90625-2.773438-1.734375.09375.296875-21.894531-68.992187-22.390624-70.558594 9.464843-9.875 17.097656-17.835937 25.375-26.46875zm12.101562 171.496094h-56.5625v-49.832031c0-4.171875-3.382812-7.554687-7.554688-7.554687-4.171874 0-7.558593 3.382812-7.558593 7.554687v49.832031h-34.835938c-11.941406 0-21.65625-9.714844-21.65625-21.65625 0-52.148437 31.855469-97 77.128907-116.105468 23.175781 72.816406 21.707031 68.796874 22.410156 70.105468 5.574218 10.175782 19.316406 13.300782 29.191406 6.902344l5.007812-3.246094c.503907 3.054688-2.425781 14.140625 7.609376 21.425782zm15.808594 0 12.101562-39.050781h22.421875l12.496094 39.050781zm168.273437 0h-34.847656v-49.832031c0-4.171875-3.375-7.554687-7.558594-7.554687-4.167969 0-7.554687 3.382812-7.554687 7.554687v49.832031h-55.421875l-13.753907-42.988281c4.292969-3.375 7.050782-8.605469 7.050782-14.480469v-6.53125l5.007812 3.246094c11.558594 7.488281 26.695313 1.167969 29.769532-8.242188l21.863281-68.863281c10.269531 4.3125 19.953125 10.015625 28.832031 17.027344-12.445312 42.085937 2.21875 89.113281 39.773438 116.367187-3.648438 2.789063-8.214844 4.464844-13.160157 4.464844zm0 0"/><path d="m430.492188 476.53125c9.960937-3.835938 18.859374-9.628906 26.449218-17.214844 47.429688-47.433594 14.527344-130.265625-53.972656-130.265625-68.289062 0-101.503906 82.730469-53.96875 130.265625 14.625 14.621094 35.222656 22.148438 49.125 22.148438 3.933594 0 7.253906-3.042969 7.53125-7.027344.292969-4.164062-2.84375-7.777344-7.007812-8.066406-14.714844-1.03125-28.550782-7.335938-38.960938-17.746094-37.980469-37.976562-11.75-104.460938 43.28125-104.460938 54.882812 0 81.335938 66.410157 43.285156 104.460938-6.085937 6.085938-13.214844 10.730469-21.191406 13.800781-3.894531 1.5-5.835938 5.875-4.335938 9.769531 1.5 3.894532 5.875 5.835938 9.765626 4.335938zm0 0"/><path d="m432.574219 367.070312c-3.554688-2.191406-8.210938-1.089843-10.402344 2.464844l-38.4375 62.316406-13.523437-18.476562c-2.464844-3.367188-7.191407-4.097656-10.558594-1.636719-3.371094 2.464844-4.101563 7.195313-1.636719 10.5625l20.152344 27.542969c1.425781 1.949219 3.695312 3.09375 6.097656 3.09375 2.625 0 5.058594-1.355469 6.433594-3.589844l44.339843-71.878906c2.191407-3.550781 1.085938-8.207031-2.464843-10.398438zm0 0"/><path d="m221.734375 210.382812c0 6.589844 5.335937 11.929688 11.929687 11.929688 6.582032 0 11.921876-5.339844 11.921876-11.929688 0-6.582031-5.339844-11.921874-11.921876-11.921874-6.578124 0-11.929687 5.335937-11.929687 11.921874zm0 0"/><path d="m252.800781 180.070312c1.25.785157 2.640625 1.160157 4.019531 1.160157 7.339844 0 10.566407-9.613281 4.03125-13.957031-16.089843-10.117188-41.917968-5.121094-44.808593-4.515626-4.082031.847657-6.691407 4.847657-5.855469 8.929688.847656 4.082031 4.847656 6.710938 8.9375 5.863281 4.855469-.996093 17.019531-2.46875 26.53125-.261719 2.660156.605469 5.121094 1.5 7.144531 2.78125zm0 0"/><path d="m130.460938 198.460938c-6.582032 0-11.921876 5.339843-11.921876 11.921874 0 7.035157 6.113282 12.367188 12.355469 11.917969 6.386719-.21875 11.496094-5.46875 11.496094-11.917969 0-6.390624-5.039063-11.609374-11.367187-11.902343-.191407-.019531-.371094-.019531-.5625-.019531zm0 0"/><path d="m148.085938 162.757812c-2.894532-.605468-28.730469-5.601562-44.8125 4.515626-6.542969 4.347656-3.296876 13.957031 4.03125 13.957031 4.023437 0 3.820312-2.257813 11.175781-3.949219 9.511719-2.199219 21.652343-.726562 26.519531.269531 4.070312.847657 8.082031-1.761719 8.9375-5.855469.847656-4.078124-1.773438-8.089843-5.851562-8.9375zm0 0"/><path d="m197.449219 257.609375c0 4.878906-2.277344 9.222656-5.824219 12.042969-9.929688 7.945312-24.949219.886718-24.949219-12.042969 0-4.164063-3.390625-7.554687-7.558593-7.554687-15.917969 0-6.082032 38.058593 22.945312 38.058593 23.804688 0 33.664062-25.125 29.847656-33.574219-3.332031-7.464843-14.460937-5-14.460937 3.070313zm0 0"/></svg>